<?xml version="1.0" encoding="utf-8"?>
<!-- Generator: Adobe Illustrator 19.0.0, SVG Export Plug-In . SVG Version: 6.00 Build 0)  -->
<svg version="1.1" id="Layer_1" xmlns="http://www.w3.org/2000/svg" xmlns:xlink="http://www.w3.org/1999/xlink" x="0px" y="0px"
	 viewBox="0 0 1125.3 595.3" style="enable-background:new 0 0 1125.3 595.3;" xml:space="preserve">
<style type="text/css">
	.st0{fill:url(#XMLID_3_);}
	.st1{fill:none;stroke:#00A79D;stroke-width:12;stroke-miterlimit:24;}
	.st2{fill:none;stroke:#00A79D;stroke-width:12;stroke-miterlimit:24;stroke-dasharray:0,0,9.721965e-003,18.4523,9.721965e-003,0;}
	.st3{fill:none;stroke:#00A79D;stroke-width:12;stroke-miterlimit:24;stroke-dasharray:18.4717,0,0,0,9.721965e-003,18.4523;}
	.st4{fill:none;stroke:#000000;stroke-width:31;stroke-miterlimit:24;}
	.st5{fill:none;stroke:#000000;stroke-width:31;stroke-miterlimit:24;stroke-dasharray:0,0,9.672974e-003,29.9669,9.672974e-003,0;}
	.st6{fill:none;stroke:#000000;stroke-width:31;stroke-miterlimit:24;stroke-dasharray:29.9862,0,0,0,9.672974e-003,29.9669;}
</style>
<g id="XMLID_1_">
	<linearGradient id="XMLID_3_" gradientUnits="userSpaceOnUse" x1="350.1033" y1="280.5" x2="830.8967" y2="280.5">
		<stop  offset="0" style="stop-color:#FFDE3D"/>
		<stop  offset="0.5146" style="stop-color:#FFEA43"/>
		<stop  offset="0.8876" style="stop-color:#FFF146"/>
		<stop  offset="1" style="stop-color:#FFF048"/>
	</linearGradient>
	<rect id="XMLID_60_" x="350.1" y="40.1" class="st0" width="480.8" height="480.8"/>
	<g id="XMLID_47_">
		<polyline id="XMLID_59_" class="st1" points="830.9,511.4 830.9,520.9 821.4,520.9 		"/>
		<line id="XMLID_58_" class="st2" x1="821.4" y1="520.9" x2="803.9" y2="520.9"/>
		<line id="XMLID_57_" class="st3" x1="802.9" y1="520.9" x2="359.6" y2="520.9"/>
		<polyline id="XMLID_56_" class="st1" points="359.6,520.9 350.1,520.9 350.1,511.4 		"/>
		<line id="XMLID_55_" class="st2" x1="350.1" y1="511.4" x2="350.1" y2="493.9"/>
		<line id="XMLID_54_" class="st3" x1="350.1" y1="492.9" x2="350.1" y2="49.6"/>
		<polyline id="XMLID_53_" class="st1" points="350.1,49.6 350.1,40.1 359.6,40.1 		"/>
		<line id="XMLID_52_" class="st2" x1="359.6" y1="40.1" x2="377.1" y2="40.1"/>
		<line id="XMLID_51_" class="st3" x1="378.1" y1="40.1" x2="821.4" y2="40.1"/>
		<polyline id="XMLID_50_" class="st1" points="821.4,40.1 830.9,40.1 830.9,49.6 		"/>
		<line id="XMLID_49_" class="st2" x1="830.9" y1="49.6" x2="830.9" y2="67.1"/>
		<line id="XMLID_48_" class="st3" x1="830.9" y1="68.1" x2="830.9" y2="511.4"/>
	</g>
	<g id="XMLID_34_">
		<polyline id="XMLID_46_" class="st4" points="830.9,505.4 830.9,520.9 815.4,520.9 		"/>
		<line id="XMLID_45_" class="st5" x1="815.4" y1="520.9" x2="786.4" y2="520.9"/>
		<line id="XMLID_44_" class="st6" x1="785.4" y1="520.9" x2="365.6" y2="520.9"/>
		<polyline id="XMLID_43_" class="st4" points="365.6,520.9 350.1,520.9 350.1,505.4 		"/>
		<line id="XMLID_42_" class="st5" x1="350.1" y1="505.4" x2="350.1" y2="476.4"/>
		<line id="XMLID_41_" class="st6" x1="350.1" y1="475.4" x2="350.1" y2="55.6"/>
		<polyline id="XMLID_40_" class="st4" points="350.1,55.6 350.1,40.1 365.6,40.1 		"/>
		<line id="XMLID_39_" class="st5" x1="365.6" y1="40.1" x2="394.6" y2="40.1"/>
		<line id="XMLID_38_" class="st6" x1="395.6" y1="40.1" x2="815.4" y2="40.1"/>
		<polyline id="XMLID_37_" class="st4" points="815.4,40.1 830.9,40.1 830.9,55.6 		"/>
		<line id="XMLID_36_" class="st5" x1="830.9" y1="55.6" x2="830.9" y2="84.6"/>
		<line id="XMLID_35_" class="st6" x1="830.9" y1="85.6" x2="830.9" y2="505.4"/>
	</g>
</g>
</svg>
