<?xml version="1.0" encoding="utf-8"?>
<!-- Generator: Adobe Illustrator 19.0.0, SVG Export Plug-In . SVG Version: 6.00 Build 0)  -->
<svg version="1.1" id="Layer_1" xmlns="http://www.w3.org/2000/svg" xmlns:xlink="http://www.w3.org/1999/xlink" x="0px" y="0px"
	 viewBox="0 0 841.9 595.3" style="enable-background:new 0 0 841.9 595.3;" xml:space="preserve">
<style type="text/css">
	.st0{fill:url(#XMLID_3_);}
</style>
<linearGradient id="XMLID_3_" gradientUnits="userSpaceOnUse" x1="-62.6877" y1="214.9986" x2="875.8139" y2="214.9986">
	<stop  offset="0" style="stop-color:#ED1C24"/>
	<stop  offset="1" style="stop-color:#F37775"/>
</linearGradient>
<path id="XMLID_1_" class="st0" d="M-12,472c70.2,70.5,189.3,54.1,226,49c55.3-7.6,112.4-25.6,157-61c22.4-17.8,41.2-39.9,54.2-65.4
	c15.3-30,22.7-63.2,39.3-92.8c2.6-4.7,5.4-9.3,8.4-13.7c25.4-37.4,59.6-69.5,101.1-88.1c90.3-40.5,140.2,22.1,222-26
	c8.7-5.1,54.6-33.1,72-87c3.8-11.8,17-52.7-3-80c-19.4-26.4-60-26.7-74-27C550.8-25.1,81.6-193-21-14c-7.4,13-11,38.6-18,90
	C-66.4,276.1-83.5,400.2-12,472z"/>
</svg>
