<?xml version="1.0" encoding="utf-8"?>
<!-- Generator: Adobe Illustrator 19.0.0, SVG Export Plug-In . SVG Version: 6.00 Build 0)  -->
<svg version="1.1" id="Layer_1" xmlns="http://www.w3.org/2000/svg" xmlns:xlink="http://www.w3.org/1999/xlink" x="0px" y="0px"
	 viewBox="0 0 960 1565" enable-background="new 0 0 960 1565" xml:space="preserve">
<g id="XMLID_23_">
	<linearGradient id="XMLID_4_" gradientUnits="userSpaceOnUse" x1="446.9166" y1="570" x2="621.0834" y2="570">
		<stop  offset="0" style="stop-color:#842F45"/>
		<stop  offset="0.2473" style="stop-color:#860050"/>
		<stop  offset="1" style="stop-color:#973B54"/>
	</linearGradient>
	<path id="XMLID_27_" fill="url(#XMLID_4_)" d="M534,657c22.3,0,45.8-9.7,61.5-25.5c15.1-15.1,26.5-39.9,25.5-61.5
		c-1-22.5-8.4-45.8-25.5-61.5c-17-15.6-38-25.5-61.5-25.5c-22.3,0-45.8,9.7-61.5,25.5C457.4,523.6,446,548.3,447,570
		c1,22.5,8.4,45.8,25.5,61.5C489.5,647.2,510.4,657,534,657L534,657z"/>
</g>
<linearGradient id="XMLID_6_" gradientUnits="userSpaceOnUse" x1="154.3773" y1="1108.1227" x2="805.6227" y2="456.8773">
	<stop  offset="0" style="stop-color:#842F45"/>
	<stop  offset="0.2473" style="stop-color:#860050"/>
	<stop  offset="1" style="stop-color:#973B54"/>
</linearGradient>
<circle id="XMLID_1_" fill="none" stroke="url(#XMLID_6_)" stroke-width="112" stroke-miterlimit="10" cx="480" cy="782.5" r="404.5"/>
<g id="XMLID_3_">
	<g id="XMLID_35_">
		<linearGradient id="XMLID_20_" gradientUnits="userSpaceOnUse" x1="467" y1="545" x2="467" y2="545">
			<stop  offset="0" style="stop-color:#842F45"/>
			<stop  offset="0.2473" style="stop-color:#860050"/>
			<stop  offset="1" style="stop-color:#973B54"/>
		</linearGradient>
		<path id="XMLID_5_" fill="url(#XMLID_20_)" d="M467,546.5c1.9,0,1.9-3,0-3C465.1,543.5,465.1,546.5,467,546.5L467,546.5z"/>
	</g>
</g>
<linearGradient id="XMLID_22_" gradientUnits="userSpaceOnUse" x1="354.0901" y1="892.03" x2="579.9099" y2="892.03">
	<stop  offset="0" style="stop-color:#842F45"/>
	<stop  offset="0.2473" style="stop-color:#860050"/>
	<stop  offset="1" style="stop-color:#973B54"/>
</linearGradient>
<path id="XMLID_21_" fill="url(#XMLID_22_)" d="M415,1107.7c-32.4-4.3-58.2-28.1-59.7-56.8c-7.2-134.8,20.5-240.4,50.3-312.6
	c25-60.5,111.1-81.9,174.1-43.1l0,0l0.2-0.2c-0.3,0.3-25.9,32.8-49.6,92.7c-21.8,55.1-46.5,145.4-40.2,262.9
	c1.7,31.9-27.1,57.8-64.3,57.9C422.1,1108.4,418.5,1108.1,415,1107.7z"/>
</svg>
